<?xml version="1.0" encoding="UTF-8" standalone="no"?>
<svg
   xmlns:dc="http://purl.org/dc/elements/1.1/"
   xmlns:cc="http://creativecommons.org/ns#"
   xmlns:rdf="http://www.w3.org/1999/02/22-rdf-syntax-ns#"
   xmlns:svg="http://www.w3.org/2000/svg"
   xmlns="http://www.w3.org/2000/svg"
   xmlns:sodipodi="http://sodipodi.sourceforge.net/DTD/sodipodi-0.dtd"
   xmlns:inkscape="http://www.inkscape.org/namespaces/inkscape"
   id="svg4497"
   version="1.1"
   viewBox="0 0 131.77005 65.910577"
   height="140"
   width="674.6626"
   sodipodi:docname="new_safetelecom_path.svg"
   inkscape:version="0.92.2 (5c3e80d, 2017-08-06)"
   inkscape:export-filename="/run/user/1000/gvfs/sftp:host=safetelecom.net,user=root/var/www/html/mobile/assets/images/new_safetelecom_white.png"
   inkscape:export-xdpi="114.9"
   inkscape:export-ydpi="114.9">
  <sodipodi:namedview
     pagecolor="#ffffff"
     bordercolor="#666666"
     borderopacity="1"
     objecttolerance="10"
     gridtolerance="10"
     guidetolerance="10"
     inkscape:pageopacity="0"
     inkscape:pageshadow="2"
     inkscape:window-width="1853"
     inkscape:window-height="1025"
     id="namedview4545"
     showgrid="false"
     inkscape:zoom="1.1545728"
     inkscape:cx="187.64004"
     inkscape:cy="68.68428"
     inkscape:window-x="67"
     inkscape:window-y="27"
     inkscape:window-maximized="1"
     inkscape:current-layer="svg4497"
     fit-margin-top="20"
     fit-margin-left="20"
     fit-margin-right="20"
     fit-margin-bottom="20" />
  <metadata
     id="metadata4501">
    <rdf:RDF>
      <cc:Work
         rdf:about="">
        <dc:format>image/svg+xml</dc:format>
        <dc:type
           rdf:resource="http://purl.org/dc/dcmitype/StillImage" />
        <dc:title></dc:title>
      </cc:Work>
    </rdf:RDF>
  </metadata>
  <defs
     id="defs4491" />
  <path
     inkscape:connector-curvature="0"
     id="path4493"
     d="m -71.39853,14.621954 c -3.25404,0.477988 -9.90863,0 -9.90863,0 v 18.398817 c 1.3514,16.640199 19.81726,21.269851 19.81726,21.269851 0,0 18.46524,-4.629652 19.81665,-21.269851 V 14.621339 c 0,0 -6.6546,0.477981 -9.90802,0 -3.45765,-0.507168 -9.90863,-3.001393 -9.90863,-3.001393 0,0 -6.45159,2.494225 -9.90863,3.002008 z"
     style="fill:none;stroke:#ff6500;stroke-width:4.40833044;stroke-linecap:butt;stroke-linejoin:round;stroke-miterlimit:39.59999847;stroke-dasharray:none;stroke-opacity:1" />
  <g
     aria-label="SafeTelecom"
     style="font-style:normal;font-variant:normal;font-weight:bold;font-stretch:normal;font-size:25.82988358px;line-height:1.25;font-family:'Google Sans';-inkscape-font-specification:'Google Sans Bold';letter-spacing:0px;word-spacing:0px;fill:#ff6500;fill-opacity:1;stroke:none;stroke-width:2.69573522;stroke-miterlimit:39.59999847;stroke-dasharray:none"
     id="text842"
     transform="matrix(1.5606153,0,0,1.5606153,-0.59427185,-1.5038371)">
    <path
       d="m -10.932331,31.740852 q -2.42801,0 -4.287761,-1.368984 -1.859752,-1.368984 -2.608818,-3.874482 l 3.280395,-1.291495 q 0.387448,1.472304 1.317324,2.35052 0.929876,0.878216 2.324689,0.878216 1.1623452,0 1.9889015,-0.568258 0.8265562,-0.594087 0.8265562,-1.627282 0,-1.033196 -0.8007264,-1.678943 -0.7748965,-0.671577 -2.7896273,-1.420643 l -1.136515,-0.413278 q -1.782262,-0.619918 -3.047926,-1.885582 -1.265665,-1.291494 -1.265665,-3.228735 0,-1.446474 0.749067,-2.634649 0.749067,-1.188174 2.118051,-1.859751 1.368983,-0.697407 3.099586,-0.697407 2.5054983,0 3.9519718,1.188175 1.4464735,1.162344 1.988901,2.737967 l -3.0737561,1.291494 q -0.2841288,-0.852386 -1.0073655,-1.420643 -0.6974072,-0.594087 -1.8080922,-0.594087 -1.136515,0 -1.885581,0.542427 -0.723237,0.516598 -0.723237,1.368984 0,0.826556 0.697407,1.420644 0.697407,0.568257 2.29886,1.110685 l 1.1623444,0.387448 q 2.4021791,0.826556 3.6678434,2.19554 1.2914942,1.343154 1.2914942,3.538694 0,1.808092 -0.9298758,3.073756 -0.9298758,1.239835 -2.4021792,1.859752 -1.4464734,0.619917 -2.996266,0.619917 z"
       style="font-style:normal;font-variant:normal;font-weight:bold;font-stretch:normal;font-size:25.82988358px;font-family:'Google Sans';-inkscape-font-specification:'Google Sans Bold';fill:#ff6500;fill-opacity:1;stroke-width:2.69573522;stroke-miterlimit:39.59999847;stroke-dasharray:none"
       id="path863"
       inkscape:connector-curvature="0" />
    <path
       d="m 2.2885333,31.740852 q -2.09222054,0 -3.4353745,-1.214005 -1.3431539,-1.239834 -1.3431539,-3.228735 0,-1.317324 0.6974068,-2.32469 0.6974069,-1.007365 1.9114114,-1.549793 1.2140045,-0.542427 2.6863079,-0.542427 2.0405608,0 3.4870343,0.594087 v -0.568257 q 0,-1.084855 -0.8265563,-1.756432 -0.8007264,-0.671577 -2.1697102,-0.671577 -0.9298758,0 -1.8080919,0.439108 -0.85238612,0.413278 -1.42064356,1.110685 L -2.1025469,20.324043 q 0.9557057,-1.239834 2.40217919,-1.911411 1.44647351,-0.671577 3.15124581,-0.671577 3.0220964,0 4.5977193,1.394814 1.5756229,1.394813 1.5756229,4.081121 v 8.110584 H 6.2921653 V 29.98442 H 6.0855262 q -0.5940873,0.774896 -1.5756229,1.265664 -0.9557057,0.490768 -2.22137,0.490768 z m 0.8007264,-2.634648 q 1.4723034,0 2.3246895,-0.929876 0.8782161,-0.955706 0.8782161,-2.22137 -1.3173241,-0.619917 -2.7637976,-0.619917 -2.63464809,0 -2.63464809,1.963071 0,0.800726 0.56825749,1.317324 0.5682574,0.490768 1.6272826,0.490768 z"
       style="font-style:normal;font-variant:normal;font-weight:bold;font-stretch:normal;font-size:25.82988358px;font-family:'Google Sans';-inkscape-font-specification:'Google Sans Bold';fill:#ff6500;fill-opacity:1;stroke-width:2.69573522;stroke-miterlimit:39.59999847;stroke-dasharray:none"
       id="path865"
       inkscape:connector-curvature="0" />
    <path
       d="m 13.906331,21.04728 h -2.350519 v -2.892947 h 2.350519 v -0.723237 q 0,-2.247199 1.343154,-3.512864 1.343154,-1.291494 3.512864,-1.291494 1.239835,0 2.14388,0.284129 v 3.306225 q -0.490767,-0.206639 -0.878216,-0.309959 -0.361618,-0.103319 -0.852386,-0.103319 -0.852386,0 -1.368984,0.490768 -0.516597,0.490767 -0.516597,1.343153 v 0.516598 h 3.228735 v 2.892947 h -3.228735 v 10.280294 h -3.383715 z"
       style="font-style:normal;font-variant:normal;font-weight:bold;font-stretch:normal;font-size:25.82988358px;font-family:'Google Sans';-inkscape-font-specification:'Google Sans Bold';fill:#ff6500;fill-opacity:1;stroke-width:2.69573522;stroke-miterlimit:39.59999847;stroke-dasharray:none"
       id="path867"
       inkscape:connector-curvature="0" />
    <path
       d="m 28.54703,31.740852 q -1.963071,0 -3.538694,-0.904046 -1.575623,-0.904046 -2.479669,-2.479669 -0.878216,-1.601453 -0.878216,-3.590354 0,-1.885581 0.878216,-3.487034 0.878216,-1.627283 2.428009,-2.582988 1.549793,-0.955706 3.461205,-0.955706 2.04056,0 3.512864,0.878216 1.472303,0.878216 2.22137,2.402179 0.774896,1.523963 0.774896,3.383715 0,0.594087 -0.07749,1.136515 h -9.892846 q 0.258299,1.575623 1.239835,2.402179 1.007365,0.800726 2.402179,0.800726 1.162345,0 1.988901,-0.490767 0.852386,-0.516598 1.343154,-1.368984 l 2.737967,1.343154 q -2.01473,3.512864 -6.121682,3.512864 z m 3.125416,-8.601351 q -0.05166,-0.619918 -0.464938,-1.214005 -0.387448,-0.619917 -1.110685,-1.007365 -0.697407,-0.413278 -1.653112,-0.413278 -1.214005,0 -2.092221,0.723236 -0.852386,0.697407 -1.239834,1.911412 z"
       style="font-style:normal;font-variant:normal;font-weight:bold;font-stretch:normal;font-size:25.82988358px;font-family:'Google Sans';-inkscape-font-specification:'Google Sans Bold';fill:#ff6500;fill-opacity:1;stroke-width:2.69573522;stroke-miterlimit:39.59999847;stroke-dasharray:none"
       id="path869"
       inkscape:connector-curvature="0" />
    <path
       d="M 41.769109,16.139602 H 36.603132 V 12.833377 H 50.42212 v 3.306225 h -5.165977 v 15.187972 h -3.487034 z"
       style="font-style:normal;font-variant:normal;font-weight:bold;font-stretch:normal;font-size:25.82988358px;font-family:'Google Sans';-inkscape-font-specification:'Google Sans Bold';fill:#ff6500;fill-opacity:1;stroke-width:2.69573522;stroke-miterlimit:39.59999847;stroke-dasharray:none"
       id="path871"
       inkscape:connector-curvature="0" />
    <path
       d="m 56.848918,31.740852 q -1.963072,0 -3.538694,-0.904046 -1.575623,-0.904046 -2.479669,-2.479669 -0.878216,-1.601453 -0.878216,-3.590354 0,-1.885581 0.878216,-3.487034 0.878216,-1.627283 2.428009,-2.582988 1.549793,-0.955706 3.461204,-0.955706 2.040561,0 3.512864,0.878216 1.472304,0.878216 2.22137,2.402179 0.774897,1.523963 0.774897,3.383715 0,0.594087 -0.07749,1.136515 h -9.892845 q 0.258299,1.575623 1.239834,2.402179 1.007366,0.800726 2.402179,0.800726 1.162345,0 1.988901,-0.490767 0.852387,-0.516598 1.343154,-1.368984 l 2.737968,1.343154 q -2.014731,3.512864 -6.121682,3.512864 z m 3.125415,-8.601351 q -0.05166,-0.619918 -0.464937,-1.214005 -0.387449,-0.619917 -1.110685,-1.007365 -0.697407,-0.413278 -1.653113,-0.413278 -1.214004,0 -2.092221,0.723236 -0.852386,0.697407 -1.239834,1.911412 z"
       style="font-style:normal;font-variant:normal;font-weight:bold;font-stretch:normal;font-size:25.82988358px;font-family:'Google Sans';-inkscape-font-specification:'Google Sans Bold';fill:#ff6500;fill-opacity:1;stroke-width:2.69573522;stroke-miterlimit:39.59999847;stroke-dasharray:none"
       id="path873"
       inkscape:connector-curvature="0" />
    <path
       d="m 65.860718,12.833377 h 3.383715 v 18.494197 h -3.383715 z"
       style="font-style:normal;font-variant:normal;font-weight:bold;font-stretch:normal;font-size:25.82988358px;font-family:'Google Sans';-inkscape-font-specification:'Google Sans Bold';fill:#ff6500;fill-opacity:1;stroke-width:2.69573522;stroke-miterlimit:39.59999847;stroke-dasharray:none"
       id="path875"
       inkscape:connector-curvature="0" />
    <path
       d="m 78.592433,31.740852 q -1.963072,0 -3.538694,-0.904046 -1.575623,-0.904046 -2.479669,-2.479669 -0.878216,-1.601453 -0.878216,-3.590354 0,-1.885581 0.878216,-3.487034 0.878216,-1.627283 2.428009,-2.582988 1.549793,-0.955706 3.461204,-0.955706 2.040561,0 3.512864,0.878216 1.472304,0.878216 2.22137,2.402179 0.774897,1.523963 0.774897,3.383715 0,0.594087 -0.07749,1.136515 h -9.892845 q 0.258299,1.575623 1.239834,2.402179 1.007366,0.800726 2.402179,0.800726 1.162345,0 1.988901,-0.490767 0.852387,-0.516598 1.343154,-1.368984 l 2.737968,1.343154 q -2.014731,3.512864 -6.121682,3.512864 z m 3.125415,-8.601351 q -0.05166,-0.619918 -0.464937,-1.214005 -0.387449,-0.619917 -1.110685,-1.007365 -0.697407,-0.413278 -1.653113,-0.413278 -1.214004,0 -2.092221,0.723236 -0.852386,0.697407 -1.239834,1.911412 z"
       style="font-style:normal;font-variant:normal;font-weight:bold;font-stretch:normal;font-size:25.82988358px;font-family:'Google Sans';-inkscape-font-specification:'Google Sans Bold';fill:#ff6500;fill-opacity:1;stroke-width:2.69573522;stroke-miterlimit:39.59999847;stroke-dasharray:none"
       id="path877"
       inkscape:connector-curvature="0" />
    <path
       d="m 93.954757,31.740852 q -1.988901,0 -3.564524,-0.878216 -1.575623,-0.904046 -2.479669,-2.505499 -0.878216,-1.601453 -0.878216,-3.616184 0,-2.01473 0.878216,-3.590353 0.904046,-1.601453 2.479669,-2.505499 1.575623,-0.904046 3.564524,-0.904046 2.19554,0 3.771163,0.955706 1.575623,0.929876 2.27303,2.660478 l -3.099586,1.291494 q -0.826557,-1.756432 -2.944607,-1.756432 -1.549793,0 -2.557159,1.059025 -0.981535,1.059025 -0.981535,2.789627 0,1.756433 0.981535,2.815458 1.007366,1.059025 2.557159,1.059025 2.14388,0 3.099586,-1.859752 l 3.073757,1.343154 q -0.852387,1.730603 -2.42801,2.686308 -1.575623,0.955706 -3.745333,0.955706 z"
       style="font-style:normal;font-variant:normal;font-weight:bold;font-stretch:normal;font-size:25.82988358px;font-family:'Google Sans';-inkscape-font-specification:'Google Sans Bold';fill:#ff6500;fill-opacity:1;stroke-width:2.69573522;stroke-miterlimit:39.59999847;stroke-dasharray:none"
       id="path879"
       inkscape:connector-curvature="0" />
    <path
       d="m 108.68828,31.740852 q -2.04056,0 -3.64201,-0.904046 -1.60146,-0.929876 -2.5055,-2.505499 -0.87822,-1.601453 -0.87822,-3.590354 0,-1.963071 0.87822,-3.564523 0.90404,-1.601453 2.5055,-2.505499 1.60145,-0.929876 3.64201,-0.929876 2.01473,0 3.61618,0.929876 1.60146,0.904046 2.47967,2.505499 0.90405,1.601452 0.90405,3.564523 0,1.988901 -0.90405,3.590354 -0.87821,1.575623 -2.47967,2.505499 -1.60145,0.904046 -3.61618,0.904046 z m 0,-3.125416 q 0.98154,0 1.80809,-0.464938 0.82656,-0.464938 1.31733,-1.343154 0.49076,-0.878216 0.49076,-2.066391 0,-1.162344 -0.49076,-2.04056 -0.49077,-0.878216 -1.31733,-1.343154 -0.82655,-0.464938 -1.80809,-0.464938 -0.98154,0 -1.80809,0.464938 -0.82656,0.464938 -1.34316,1.343154 -0.49076,0.878216 -0.49076,2.04056 0,1.162345 0.49076,2.066391 0.5166,0.878216 1.34316,1.343154 0.82655,0.464938 1.80809,0.464938 z"
       style="font-style:normal;font-variant:normal;font-weight:bold;font-stretch:normal;font-size:25.82988358px;font-family:'Google Sans';-inkscape-font-specification:'Google Sans Bold';fill:#ff6500;fill-opacity:1;stroke-width:2.69573522;stroke-miterlimit:39.59999847;stroke-dasharray:none"
       id="path881"
       inkscape:connector-curvature="0" />
    <path
       d="m 118.02497,18.154333 h 3.17708 v 1.653113 h 0.20664 q 0.61991,-0.955706 1.65311,-1.498134 1.05902,-0.568257 2.35052,-0.568257 1.39481,0 2.42801,0.671577 1.03319,0.645747 1.4723,1.653113 0.64575,-1.033196 1.75643,-1.678943 1.13652,-0.645747 2.66048,-0.645747 2.2472,0 3.40954,1.394814 1.18818,1.368984 1.18818,3.719503 v 8.472202 h -3.35789 v -7.852285 q 0,-1.239834 -0.59408,-1.911411 -0.56826,-0.671577 -1.60146,-0.671577 -1.31732,0 -2.11805,1.059025 -0.77489,1.033195 -0.77489,2.737968 v 6.63828 h -3.38372 v -7.852285 q 0,-1.239834 -0.61991,-1.911411 -0.59409,-0.671577 -1.70478,-0.671577 -1.23983,0 -2.01473,1.059025 -0.74906,1.033195 -0.74906,2.737968 v 6.63828 h -3.38372 z"
       style="font-style:normal;font-variant:normal;font-weight:bold;font-stretch:normal;font-size:25.82988358px;font-family:'Google Sans';-inkscape-font-specification:'Google Sans Bold';fill:#ff6500;fill-opacity:1;stroke-width:2.69573522;stroke-miterlimit:39.59999847;stroke-dasharray:none"
       id="path883"
       inkscape:connector-curvature="0" />
  </g>
</svg>
